# Made in Blockbench 4.12.2
mtllib auxiliary_tank.mtl

o tank
v -0.2562500000000001 0.4138325214724777 0.21875
v 0.25 0.5625 0.5
v 0.25 0.5625 -0.5
v 0.25 0 0.5
v 0.25 0 -0.5
v -0.25 0.5625 0.5
v -0.25 0.5625 -0.5
v -0.25 0 0.5
v -0.25 0 -0.5
v 0.0625 0.625 -0.25
v 0.0625 0.625 -0.375
v 0.0625 0.5625 -0.25
v 0.0625 0.5625 -0.375
v -0.0625 0.625 -0.25
v -0.0625 0.625 -0.375
v -0.0625 0.5625 -0.25
v -0.0625 0.5625 -0.375
v -0.2562500000000001 0.28125 0.3513325214724776
v -0.2562500000000001 0.14866747852752238 0.21875
v -0.2562500000000001 0.28125000000000006 0.08616747852752232
v 0.2562499999999999 0.28125 0.3513325214724776
v 0.2562499999999999 0.4138325214724777 0.21875
v 0.2562499999999999 0.14866747852752238 0.21875
v 0.2562499999999999 0.28125000000000006 0.08616747852752232
v 0.1875 0.6875 0.4375
v 0.1875 0.6875 -0.4375
v 0.1875 0.5625 0.4375
v 0.1875 0.5625 -0.4375
v -0.1875 0.6875 0.4375
v -0.1875 0.6875 -0.4375
v -0.1875 0.5625 0.4375
v -0.1875 0.5625 -0.4375
v -0.1859375 0.6875 0.4375
v -0.1859375 0.6875 -0.4375
v -0.1859375 0.5625 0.4375
v -0.1859375 0.5625 -0.4375
v 0.1859375 0.6875 0.4375
v 0.1859375 0.6875 -0.4375
v 0.1859375 0.5625 0.4375
v 0.1859375 0.5625 -0.4375
vt 0.5 0.71875
vt 0.5 1
vt 0 1
vt 0 0.71875
vt 0.5 0.4375
vt 0.5 0.71875
vt 0 0.71875
vt 0 0.4375
vt 0.5 1
vt 0.5 0.5
vt 0.75 0.5
vt 0.75 1
vt 0.5 0
vt 0.5 0.5
vt 0.75 0.5
vt 0.75 0
vt 0.5 0.15625
vt 0.5 0.4375
vt 0.25 0.4375
vt 0.25 0.15625
vt 0.25 0.15625
vt 0.25 0.4375
vt 0 0.4375
vt 0 0.15625
vt 0.8125 0.8125
vt 0.8125 0.84375
vt 0.75 0.84375
vt 0.75 0.8125
vt 0.8125 0.75
vt 0.8125 0.78125
vt 0.75 0.78125
vt 0.75 0.75
vt 0.75 1
vt 0.75 0.9375
vt 0.8125 0.9375
vt 0.8125 1
vt 0.75 0.875
vt 0.75 0.9375
vt 0.8125 0.9375
vt 0.8125 0.875
vt 0.8125 0.78125
vt 0.8125 0.8125
vt 0.75 0.8125
vt 0.75 0.78125
vt 0.8125 0.84375
vt 0.8125 0.875
vt 0.75 0.875
vt 0.75 0.84375
vt 0.9375 0.90625
vt 0.9375 1
vt 0.84375 1
vt 0.84375 0.90625
vt 0.84375 1
vt 0.9375 1
vt 0.9375 0.90625
vt 0.84375 0.90625
vt 0 0
vt 0 0.0625
vt 0.4375 0.0625
vt 0.4375 0
vt 0.4375 0
vt 0.4375 0.0625
vt 0 0.0625
vt 0 0
vt 0 0.0625
vt 0.4375 0.0625
vt 0.4375 0
vt 0 0
vt 0.4375 0.0625
vt 0 0.0625
vt 0 0
vt 0.4375 0
vn 1 0 0
vn -1 0 0
vn 0 1 0
vn 0 -1 0
vn 0 0 1
vn 0 0 -1
vn 1 0 0
vn -1 0 0
vn 0 1 0
vn 0 -1 0
vn 0 0 1
vn 0 0 -1
vn -1 0 0
vn 1 0 0
vn 1 0 0
vn -1 0 0
vn 1 0 0
vn -1 0 0
usemtl m_967f8c28-ef22-f673-62ba-f1bcffb2c3c1
f 5/1/1 3/2/1 2/3/1 4/4/1
f 8/5/2 6/6/2 7/7/2 9/8/2
f 2/9/3 3/10/3 7/11/3 6/12/3
f 5/13/4 4/14/4 8/15/4 9/16/4
f 4/17/5 2/18/5 6/19/5 8/20/5
f 9/21/6 7/22/6 3/23/6 5/24/6
f 13/25/7 11/26/7 10/27/7 12/28/7
f 16/29/8 14/30/8 15/31/8 17/32/8
f 10/33/9 11/34/9 15/35/9 14/36/9
f 13/37/10 12/38/10 16/39/10 17/40/10
f 12/41/11 10/42/11 14/43/11 16/44/11
f 17/45/12 15/46/12 11/47/12 13/48/12
f 19/49/13 18/50/13 1/51/13 20/52/13
f 22/53/14 21/54/14 23/55/14 24/56/14
f 28/57/15 26/58/15 25/59/15 27/60/15
f 31/61/16 29/62/16 30/63/16 32/64/16
f 34/65/17 33/66/17 35/67/17 36/68/17
f 37/69/18 38/70/18 40/71/18 39/72/18