# Made in Blockbench 4.12.3
mtllib hoist_bell206.mtl

o main
v 0.328125 0.125 -0.46875
v 0.328125 0.3125 -0.46875
v 0.328125 0.3125 0.15625
v 0.328125 0.125 0.15625
v -0.046875 0.125 0.15625
v -0.046875 0.3125 0.15625
v -0.046875 0.3125 -0.46875
v -0.046875 0.125 -0.46875
v 0.203125 0 -0.46875
v 0.203125 0.125 -0.46875
v 0.203125 0.125 -0.40625
v 0.203125 0 -0.40625
v 0.078125 0 -0.40625
v 0.078125 0.125 -0.40625
v 0.078125 0.125 -0.46875
v 0.078125 0 -0.46875
v 0.203125 0 0.09375
v 0.203125 0.125 0.09375
v 0.203125 0.125 0.15625
v 0.203125 0 0.15625
v 0.078125 0 0.15625
v 0.078125 0.125 0.15625
v 0.078125 0.125 0.09375
v 0.078125 0 0.09375
v 1.3877787807814457e-17 0.0625 -0.022097086912079622
v 1.3877787807814457e-17 0.125 -0.022097086912079622
v 0.022097086912079608 0.125 0
v 0.022097086912079608 0.0625 0
v 0 0.0625 0.022097086912079622
v 0 0.125 0.022097086912079622
v -0.022097086912079594 0.125 0
v -0.022097086912079594 0.0625 0
vt 0.1875 0.78125
vt 0.1875 0.828125
vt 0.03125 0.828125
vt 0.03125 0.78125
vt 0.359375 0.78125
vt 0.359375 0.828125
vt 0.203125 0.828125
vt 0.203125 0.78125
vt 0.125 0.84375
vt 0.125 1
vt 0.03125 1
vt 0.03125 0.84375
vt 0.234375 0.84375
vt 0.234375 1
vt 0.140625 1
vt 0.140625 0.84375
vt 0.34375 0.625
vt 0.34375 0.671875
vt 0.25 0.671875
vt 0.25 0.625
vt 0.453125 0.625
vt 0.453125 0.671875
vt 0.359375 0.671875
vt 0.359375 0.625
vt 0.09375 0.453125
vt 0.09375 0.484375
vt 0.078125 0.484375
vt 0.078125 0.453125
vt 0.125 0.453125
vt 0.125 0.484375
vt 0.109375 0.484375
vt 0.109375 0.453125
vt 0.359375 0.84375
vt 0.359375 0.859375
vt 0.328125 0.859375
vt 0.328125 0.84375
vt 0.5625 0.8125
vt 0.5625 0.828125
vt 0.53125 0.828125
vt 0.53125 0.8125
vt 0.34375 0.5
vt 0.34375 0.53125
vt 0.3125 0.53125
vt 0.3125 0.5
vt 0.390625 0.5
vt 0.390625 0.53125
vt 0.359375 0.53125
vt 0.359375 0.5
vt 0.328125 0.453125
vt 0.328125 0.484375
vt 0.3125 0.484375
vt 0.3125 0.453125
vt 0.359375 0.453125
vt 0.359375 0.484375
vt 0.34375 0.484375
vt 0.34375 0.453125
vt 0.5625 0.640625
vt 0.5625 0.65625
vt 0.53125 0.65625
vt 0.53125 0.640625
vt 0.40625 0.46875
vt 0.40625 0.484375
vt 0.375 0.484375
vt 0.375 0.46875
vt 0.4375 0.5
vt 0.4375 0.53125
vt 0.40625 0.53125
vt 0.40625 0.5
vt 0.53125 0.59375
vt 0.53125 0.625
vt 0.5 0.625
vt 0.5 0.59375
vt 0.21875 0.4375
vt 0.21875 0.46875
vt 0.203125 0.46875
vt 0.203125 0.4375
vt 0.25 0.4375
vt 0.25 0.46875
vt 0.234375 0.46875
vt 0.234375 0.4375
vt 0.28125 0.4375
vt 0.28125 0.46875
vt 0.265625 0.46875
vt 0.265625 0.4375
vt 0.578125 0.46875
vt 0.578125 0.484375
vt 0.5625 0.484375
vt 0.5625 0.46875
vt 0.59375 0.796875
vt 0.59375 0.828125
vt 0.578125 0.828125
vt 0.578125 0.796875
vt 0.59375 0.71875
vt 0.59375 0.75
vt 0.578125 0.75
vt 0.578125 0.71875
vn 1 0 0
vn -1 0 0
vn 0 1 0
vn 0 -1 0
vn 0 0 1
vn 0 0 -1
vn 1 0 0
vn -1 0 0
vn 0 1 0
vn 0 -1 0
vn 0 0 1
vn 0 0 -1
vn 1 0 0
vn -1 0 0
vn 0 1 0
vn 0 -1 0
vn 0 0 1
vn 0 0 -1
vn 0.707106781186548 0 -0.7071067811865471
vn -0.707106781186548 0 0.7071067811865471
vn 0 1 0
vn 0 -1 0
vn 0.7071067811865478 0 0.7071067811865474
vn -0.7071067811865478 0 -0.7071067811865474
usemtl none
f 1/1/1 2/2/1 3/3/1 4/4/1
f 5/5/2 6/6/2 7/7/2 8/8/2
f 3/9/3 2/10/3 7/11/3 6/12/3
f 1/13/4 4/14/4 5/15/4 8/16/4
f 4/17/5 3/18/5 6/19/5 5/20/5
f 8/21/6 7/22/6 2/23/6 1/24/6
f 9/25/7 10/26/7 11/27/7 12/28/7
f 13/29/8 14/30/8 15/31/8 16/32/8
f 11/33/9 10/34/9 15/35/9 14/36/9
f 9/37/10 12/38/10 13/39/10 16/40/10
f 12/41/11 11/42/11 14/43/11 13/44/11
f 16/45/12 15/46/12 10/47/12 9/48/12
f 17/49/13 18/50/13 19/51/13 20/52/13
f 21/53/14 22/54/14 23/55/14 24/56/14
f 19/57/15 18/58/15 23/59/15 22/60/15
f 17/61/16 20/62/16 21/63/16 24/64/16
f 20/65/17 19/66/17 22/67/17 21/68/17
f 24/69/18 23/70/18 18/71/18 17/72/18
f 25/73/19 26/74/19 27/75/19 28/76/19
f 29/77/20 30/78/20 31/79/20 32/80/20
f 27/81/21 26/82/21 31/83/21 30/84/21
f 25/85/22 28/86/22 29/87/22 32/88/22
f 28/89/23 27/90/23 30/91/23 29/92/23
f 32/93/24 31/94/24 26/95/24 25/96/24
o rope
v -0.016406249999999734 0 -0.0007812500000001811
v -0.016406249999999734 0.0625 -0.0007812500000001811
v 0.014843750000000266 0.0625 -0.0007812500000001742
v 0.014843750000000266 0 -0.0007812500000001742
v 0.014843750000000266 0 0.0007812499999998203
v 0.014843750000000266 0.0625 0.0007812499999998203
v -0.016406249999999734 0.0625 0.0007812499999998133
v -0.016406249999999734 0 0.0007812499999998133
v 4.475586568020162e-16 0 -0.015625
v 4.475586568020162e-16 0.0625 -0.015625
v 4.40619762898109e-16 0.0625 0.015625
v 4.40619762898109e-16 0 0.015625
v -0.0015624999999994706 0 0.015625
v -0.0015624999999994706 0.0625 0.015625
v -0.0015624999999994636 0.0625 -0.015625
v -0.0015624999999994636 0 -0.015625
vt 0.015625 0
vt 0.015625 1
vt 0 1
vt 0 0
vt 0.015625 0
vt 0.015625 1
vt 0 1
vt 0 0
vt 0.015625 0
vt 0.015625 1
vt 0 1
vt 0 0
vt 0.015625 0
vt 0.015625 1
vt 0 1
vt 0 0
vn 2.220446049250313e-16 0 -1
vn -2.220446049250313e-16 0 1
vn 1 0 2.220446049250313e-16
vn -1 0 -2.220446049250313e-16
usemtl none
f 33/97/25 34/98/25 35/99/25 36/100/25
f 37/101/26 38/102/26 39/103/26 40/104/26
f 41/105/27 42/106/27 43/107/27 44/108/27
f 45/109/28 46/110/28 47/111/28 48/112/28
o spool
v 0.265625 -0.0625 -0.40625
v 0.265625 0.1875 -0.40625
v 0.265625 0.1875 -0.34375
v 0.265625 -0.0625 -0.34375
v 0.015625 -0.0625 -0.34375
v 0.015625 0.1875 -0.34375
v 0.015625 0.1875 -0.40625
v 0.015625 -0.0625 -0.40625
v 0.265625 -0.0625 0.03125
v 0.265625 0.1875 0.03125
v 0.265625 0.1875 0.09375
v 0.265625 -0.0625 0.09375
v 0.015625 -0.0625 0.09375
v 0.015625 0.1875 0.09375
v 0.015625 0.1875 0.03125
v 0.015625 -0.0625 0.03125
v 0.234375 -0.03125 -0.34375
v 0.234375 0.15625 -0.34375
v 0.234375 0.15625 0.03125
v 0.234375 -0.03125 0.03125
v 0.046875 -0.03125 0.03125
v 0.046875 0.15625 0.03125
v 0.046875 0.15625 -0.34375
v 0.046875 -0.03125 -0.34375
vt 0.125 0.5
vt 0.125 0.5625
vt 0.109375 0.5625
vt 0.109375 0.5
vt 0.46875 0.46875
vt 0.46875 0.53125
vt 0.453125 0.53125
vt 0.453125 0.46875
vt 0.3125 0.84375
vt 0.3125 0.859375
vt 0.25 0.859375
vt 0.25 0.84375
vt 0.4375 0.78125
vt 0.4375 0.796875
vt 0.375 0.796875
vt 0.375 0.78125
vt 0.328125 0.546875
vt 0.328125 0.609375
vt 0.265625 0.609375
vt 0.265625 0.546875
vt 0.40625 0.546875
vt 0.40625 0.609375
vt 0.34375 0.609375
vt 0.34375 0.546875
vt 0.515625 0.515625
vt 0.515625 0.578125
vt 0.5 0.578125
vt 0.5 0.515625
vt 0.15625 0.453125
vt 0.15625 0.515625
vt 0.140625 0.515625
vt 0.140625 0.453125
vt 0.234375 0.484375
vt 0.234375 0.5
vt 0.171875 0.5
vt 0.171875 0.484375
vt 0.59375 0.84375
vt 0.59375 0.859375
vt 0.53125 0.859375
vt 0.53125 0.84375
vt 0.484375 0.546875
vt 0.484375 0.609375
vt 0.421875 0.609375
vt 0.421875 0.546875
vt 0.09375 0.5
vt 0.09375 0.5625
vt 0.03125 0.5625
vt 0.03125 0.5
vt 0.46875 0.8125
vt 0.46875 0.859375
vt 0.375 0.859375
vt 0.375 0.8125
vt 0.125 0.578125
vt 0.125 0.625
vt 0.03125 0.625
vt 0.03125 0.578125
vt 0.1875 0.53125
vt 0.1875 0.625
vt 0.140625 0.625
vt 0.140625 0.53125
vt 0.25 0.515625
vt 0.25 0.609375
vt 0.203125 0.609375
vt 0.203125 0.515625
vt 0.515625 0.703125
vt 0.515625 0.75
vt 0.46875 0.75
vt 0.46875 0.703125
vt 0.515625 0.640625
vt 0.515625 0.6875
vt 0.46875 0.6875
vt 0.46875 0.640625
vn 1 0 0
vn -1 0 0
vn 0 1 0
vn 0 -1 0
vn 0 0 1
vn 0 0 -1
vn 1 0 0
vn -1 0 0
vn 0 1 0
vn 0 -1 0
vn 0 0 1
vn 0 0 -1
vn 1 0 0
vn -1 0 0
vn 0 1 0
vn 0 -1 0
vn 0 0 1
vn 0 0 -1
usemtl none
f 49/113/29 50/114/29 51/115/29 52/116/29
f 53/117/30 54/118/30 55/119/30 56/120/30
f 51/121/31 50/122/31 55/123/31 54/124/31
f 49/125/32 52/126/32 53/127/32 56/128/32
f 52/129/33 51/130/33 54/131/33 53/132/33
f 56/133/34 55/134/34 50/135/34 49/136/34
f 57/137/35 58/138/35 59/139/35 60/140/35
f 61/141/36 62/142/36 63/143/36 64/144/36
f 59/145/37 58/146/37 63/147/37 62/148/37
f 57/149/38 60/150/38 61/151/38 64/152/38
f 60/153/39 59/154/39 62/155/39 61/156/39
f 64/157/40 63/158/40 58/159/40 57/160/40
f 65/161/41 66/162/41 67/163/41 68/164/41
f 69/165/42 70/166/42 71/167/42 72/168/42
f 67/169/43 66/170/43 71/171/43 70/172/43
f 65/173/44 68/174/44 69/175/44 72/176/44
f 68/177/45 67/178/45 70/179/45 69/180/45
f 72/181/46 71/182/46 66/183/46 65/184/46
o hook
v -3.469446951953614e-18 -0.125 -0.044194173824159216
v -3.469446951953614e-18 0 -0.044194173824159216
v 0.044194173824159216 0 -3.469446951953614e-18
v 0.044194173824159216 -0.125 -3.469446951953614e-18
v 3.469446951953614e-18 -0.125 0.044194173824159216
v 3.469446951953614e-18 0 0.044194173824159216
v -0.044194173824159216 0 3.469446951953614e-18
v -0.044194173824159216 -0.125 3.469446951953614e-18
v 0.0015624999999998349 -0.3125 -0.09374999999999989
v 0.0015624999999998349 -0.125 -0.09374999999999989
v 0.0015624999999998418 -0.125 0.031250000000000173
v 0.0015624999999998418 -0.3125 0.031250000000000173
v -0.0015624999999999944 -0.3125 0.031250000000000173
v -0.0015624999999999944 -0.125 0.031250000000000173
v -0.0015625000000000014 -0.125 -0.09374999999999989
v -0.0015625000000000014 -0.3125 -0.09374999999999989
vt 0.5625 0.59375
vt 0.5625 0.625
vt 0.546875 0.625
vt 0.546875 0.59375
vt 0.4375 0.453125
vt 0.4375 0.484375
vt 0.421875 0.484375
vt 0.421875 0.453125
vt 0.59375 0.609375
vt 0.59375 0.625
vt 0.578125 0.625
vt 0.578125 0.609375
vt 0.59375 0.578125
vt 0.59375 0.59375
vt 0.578125 0.59375
vt 0.578125 0.578125
vt 0.546875 0.453125
vt 0.546875 0.484375
vt 0.53125 0.484375
vt 0.53125 0.453125
vt 0.1875 0.4375
vt 0.1875 0.46875
vt 0.171875 0.46875
vt 0.171875 0.4375
vt 0.515625 0.8125
vt 0.515625 0.859375
vt 0.484375 0.859375
vt 0.484375 0.8125
vt 0.296875 0.484375
vt 0.296875 0.53125
vt 0.265625 0.53125
vt 0.265625 0.484375
vn 0.7071067811865476 0 -0.7071067811865476
vn -0.7071067811865476 0 0.7071067811865476
vn 0 1 0
vn 0 -1 0
vn 0.7071067811865476 0 0.7071067811865476
vn -0.7071067811865476 0 -0.7071067811865476
vn 1 0 -5.55111512312578e-17
vn -1 0 5.55111512312578e-17
usemtl none
f 73/185/47 74/186/47 75/187/47 76/188/47
f 77/189/48 78/190/48 79/191/48 80/192/48
f 75/193/49 74/194/49 79/195/49 78/196/49
f 73/197/50 76/198/50 77/199/50 80/200/50
f 76/201/51 75/202/51 78/203/51 77/204/51
f 80/205/52 79/206/52 74/207/52 73/208/52
f 81/209/53 82/210/53 83/211/53 84/212/53
f 85/213/54 86/214/54 87/215/54 88/216/54
o #struts
v 0.796875 0.265625 -0.03125
v 0.796875 0.375 -0.03125
v 0.796875 0.375 0.09375
v 0.796875 0.265625 0.09375
v -0.015625 0.265625 0.09375
v -0.015625 0.375 0.09375
v -0.015625 0.375 -0.03125
v -0.015625 0.265625 -0.03125
v 0.796875 0.265625 -0.40625
v 0.796875 0.375 -0.40625
v 0.796875 0.375 -0.28125
v 0.796875 0.265625 -0.28125
v -0.015625 0.265625 -0.28125
v -0.015625 0.375 -0.28125
v -0.015625 0.375 -0.40625
v -0.015625 0.265625 -0.40625
v 0.569622564417433 -0.14774756441743303 -0.40625
v 0.6580109120657514 -0.0593592167691146 -0.40625
v 0.6580109120657514 -0.0593592167691146 -0.28125
v 0.569622564417433 -0.14774756441743303 -0.28125
v 0.21606917382415922 0.20580582617584078 -0.28125
v 0.3044575214724777 0.2941941738241592 -0.28125
v 0.3044575214724777 0.2941941738241592 -0.40625
v 0.21606917382415922 0.20580582617584078 -0.40625
vt 0.5625 0.71875
vt 0.5625 0.75
vt 0.53125 0.75
vt 0.53125 0.71875
vt 0.5625 0.671875
vt 0.5625 0.703125
vt 0.53125 0.703125
vt 0.53125 0.671875
vt 0.453125 0.96875
vt 0.453125 1
vt 0.25 1
vt 0.25 0.96875
vt 0.453125 0.921875
vt 0.453125 0.953125
vt 0.25 0.953125
vt 0.25 0.921875
vt 0.453125 0.875
vt 0.453125 0.90625
vt 0.25 0.90625
vt 0.25 0.875
vt 0.234375 0.734375
vt 0.234375 0.765625
vt 0.03125 0.765625
vt 0.03125 0.734375
vt 0.5625 0.546875
vt 0.5625 0.578125
vt 0.53125 0.578125
vt 0.53125 0.546875
vt 0.515625 0.46875
vt 0.515625 0.5
vt 0.484375 0.5
vt 0.484375 0.46875
vt 0.453125 0.734375
vt 0.453125 0.765625
vt 0.25 0.765625
vt 0.25 0.734375
vt 0.234375 0.6875
vt 0.234375 0.71875
vt 0.03125 0.71875
vt 0.03125 0.6875
vt 0.453125 0.6875
vt 0.453125 0.71875
vt 0.25 0.71875
vt 0.25 0.6875
vt 0.234375 0.640625
vt 0.234375 0.671875
vt 0.03125 0.671875
vt 0.03125 0.640625
vt 0.5625 0.5
vt 0.5625 0.53125
vt 0.53125 0.53125
vt 0.53125 0.5
vt 0.0625 0.453125
vt 0.0625 0.484375
vt 0.03125 0.484375
vt 0.03125 0.453125
vt 0.59375 0.96875
vt 0.59375 1
vt 0.46875 1
vt 0.46875 0.96875
vt 0.59375 0.921875
vt 0.59375 0.953125
vt 0.46875 0.953125
vt 0.46875 0.921875
vt 0.59375 0.875
vt 0.59375 0.90625
vt 0.46875 0.90625
vt 0.46875 0.875
vt 0.59375 0.765625
vt 0.59375 0.796875
vt 0.46875 0.796875
vt 0.46875 0.765625
vn 1 0 0
vn -1 0 0
vn 0 1 0
vn 0 -1 0
vn 0 0 1
vn 0 0 -1
vn 1 0 0
vn -1 0 0
vn 0 1 0
vn 0 -1 0
vn 0 0 1
vn 0 0 -1
vn 0.7071067811865478 -0.7071067811865474 0
vn -0.7071067811865474 0.7071067811865478 0
vn 0.7071067811865477 0.7071067811865475 0
vn -0.7071067811865477 -0.7071067811865475 0
vn 0 0 1
vn 0 0 -1
usemtl none
f 89/217/55 90/218/55 91/219/55 92/220/55
f 93/221/56 94/222/56 95/223/56 96/224/56
f 91/225/57 90/226/57 95/227/57 94/228/57
f 89/229/58 92/230/58 93/231/58 96/232/58
f 92/233/59 91/234/59 94/235/59 93/236/59
f 96/237/60 95/238/60 90/239/60 89/240/60
f 97/241/61 98/242/61 99/243/61 100/244/61
f 101/245/62 102/246/62 103/247/62 104/248/62
f 99/249/63 98/250/63 103/251/63 102/252/63
f 97/253/64 100/254/64 101/255/64 104/256/64
f 100/257/65 99/258/65 102/259/65 101/260/65
f 104/261/66 103/262/66 98/263/66 97/264/66
f 105/265/67 106/266/67 107/267/67 108/268/67
f 109/269/68 110/270/68 111/271/68 112/272/68
f 107/273/69 106/274/69 111/275/69 110/276/69
f 105/277/70 108/278/70 109/279/70 112/280/70
f 108/281/71 107/282/71 110/283/71 109/284/71
f 112/285/72 111/286/72 106/287/72 105/288/72
o #lookgordonropes
v -0.30776642704494256 -0.6325825562010403 -0.3197303811803817
v 0.0047334137942379164 -0.19064076168763264 -0.007230301599982135
v 0.3172334933746392 -0.6325824436573737 0.3052696984000166
v 0.0047336525354586875 -1.0745242381707814 -0.007230381180383008
v -0.004105193483736273 -1.0745242700029454 0.0016084423300785438
v 0.3083946473554441 -0.6325824754895378 0.3141085219104781
v -0.00410543222495701 -0.19064079351979676 0.00160852191047945
v -0.3166052730641374 -0.6325825880332043 -0.31089155766992005
v -0.3166053811803811 -0.6325825562010402 0.3046414270449433
v -0.004105301599982143 -0.1906407616876326 -0.007858413794237913
v 0.30839469840001643 -0.6325824436573737 -0.32035849337463945
v -0.004105381180382534 -1.0745242381707814 -0.007858652535458317
v 0.004733442330079032 -1.0745242700029454 0.0009801934837366326
v 0.317233521910478 -0.6325824754895377 -0.3115196473554444
v 0.004733521910479457 -0.19064079351979674 0.000980432224957003
v -0.30776655766991934 -0.6325825880332043 0.31348027306413806
vt 0.734375 1
vt 0.609375 1
vt 0.609375 0.875
vt 0.734375 0.875
vt 0.734375 0.875
vt 0.734375 1
vt 0.609375 1
vt 0.609375 0.875
vt 0.734375 1
vt 0.609375 1
vt 0.609375 0.875
vt 0.734375 0.875
vt 0.734375 0.875
vt 0.734375 1
vt 0.609375 1
vt 0.609375 0.875
vn 0.7071068712214501 2.546573136186225e-7 -0.7071066911515878
vn -0.7071068712214501 -2.546573135266082e-7 0.7071066911515876
vn -0.7071066911515886 2.546573127659711e-7 -0.7071068712214492
vn 0.7071066911515885 -2.54657312848678e-7 0.7071068712214492
usemtl none
f 113/289/73 114/290/73 115/291/73 116/292/73
f 117/293/74 118/294/74 119/295/74 120/296/74
f 121/297/75 122/298/75 123/299/75 124/300/75
f 125/301/76 126/302/76 127/303/76 128/304/76
o #control
v 0.125 -0.65625 0.421875
v 0.125 -0.59375 0.421875
v 0.125 -0.59375 0.546875
v 0.125 -0.65625 0.546875
v -0.125 -0.65625 0.546875
v -0.125 -0.59375 0.546875
v -0.125 -0.59375 0.421875
v -0.125 -0.65625 0.421875
vt 0.640625 0.71875
vt 0.640625 0.734375
vt 0.609375 0.734375
vt 0.609375 0.71875
vt 0.640625 0.734375
vt 0.640625 0.75
vt 0.609375 0.75
vt 0.609375 0.734375
vt 0.671875 0.8125
vt 0.671875 0.84375
vt 0.609375 0.84375
vt 0.609375 0.8125
vt 0.671875 0.78125
vt 0.671875 0.8125
vt 0.609375 0.8125
vt 0.609375 0.78125
vt 0.671875 0.75
vt 0.671875 0.765625
vt 0.609375 0.765625
vt 0.609375 0.75
vt 0.671875 0.765625
vt 0.671875 0.78125
vt 0.609375 0.78125
vt 0.609375 0.765625
vn 1 0 0
vn -1 0 0
vn 0 1 0
vn 0 -1 0
vn 0 0 1
vn 0 0 -1
usemtl none
f 129/305/77 130/306/77 131/307/77 132/308/77
f 133/309/78 134/310/78 135/311/78 136/312/78
f 131/313/79 130/314/79 135/315/79 134/316/79
f 129/317/80 132/318/80 133/319/80 136/320/80
f 132/321/81 131/322/81 134/323/81 133/324/81
f 136/325/82 135/326/82 130/327/82 129/328/82
o #down
v 0.09106917382415922 -0.5609375 0.484375
v 0.0625 -0.5609375 0.4558058261758408
v 0.033930826175840784 -0.5609375 0.484375
v 0.0625 -0.5609375 0.5129441738241592
v 0.09375 -0.625 0.453125
v 0.09375 -0.5625 0.453125
v 0.09375 -0.5625 0.515625
v 0.09375 -0.625 0.515625
v 0.03125 -0.625 0.515625
v 0.03125 -0.5625 0.515625
v 0.03125 -0.5625 0.453125
v 0.03125 -0.625 0.453125
vt 0.671875 0.8125
vt 0.671875 0.84375
vt 0.703125 0.84375
vt 0.703125 0.8125
vt 0.671875 0.6875
vt 0.671875 0.703125
vt 0.65625 0.703125
vt 0.65625 0.6875
vt 0.65625 0.6875
vt 0.65625 0.703125
vt 0.640625 0.703125
vt 0.640625 0.6875
vt 0.640625 0.6875
vt 0.640625 0.703125
vt 0.625 0.703125
vt 0.625 0.6875
vt 0.625 0.6875
vt 0.625 0.703125
vt 0.609375 0.703125
vt 0.609375 0.6875
vt 0.640625 0.703125
vt 0.640625 0.71875
vt 0.625 0.71875
vt 0.625 0.703125
vt 0.625 0.703125
vt 0.625 0.71875
vt 0.609375 0.71875
vt 0.609375 0.703125
vn 0 1 0
vn 1 0 0
vn -1 0 0
vn 0 1 0
vn 0 -1 0
vn 0 0 1
vn 0 0 -1
usemtl none
f 137/329/83 138/330/83 139/331/83 140/332/83
f 141/333/84 142/334/84 143/335/84 144/336/84
f 145/337/85 146/338/85 147/339/85 148/340/85
f 143/341/86 142/342/86 147/343/86 146/344/86
f 141/345/87 144/346/87 145/347/87 148/348/87
f 144/349/88 143/350/88 146/351/88 145/352/88
f 148/353/89 147/354/89 142/355/89 141/356/89
o #up
v -0.03393082617584079 -0.5609375 0.484375
v -0.0625 -0.5609375 0.4558058261758408
v -0.09106917382415922 -0.5609375 0.484375
v -0.06249999999999999 -0.5609375 0.5129441738241592
v -0.03125 -0.625 0.453125
v -0.03125 -0.5625 0.453125
v -0.03125 -0.5625 0.515625
v -0.03125 -0.625 0.515625
v -0.09375 -0.625 0.515625
v -0.09375 -0.5625 0.515625
v -0.09375 -0.5625 0.453125
v -0.09375 -0.625 0.453125
vt 0.703125 0.84375
vt 0.703125 0.8125
vt 0.671875 0.8125
vt 0.671875 0.84375
vt 0.671875 0.703125
vt 0.671875 0.71875
vt 0.65625 0.71875
vt 0.65625 0.703125
vt 0.65625 0.703125
vt 0.65625 0.71875
vt 0.640625 0.71875
vt 0.640625 0.703125
vt 0.65625 0.71875
vt 0.65625 0.734375
vt 0.640625 0.734375
vt 0.640625 0.71875
vt 0.671875 0.734375
vt 0.671875 0.75
vt 0.65625 0.75
vt 0.65625 0.734375
vt 0.65625 0.734375
vt 0.65625 0.75
vt 0.640625 0.75
vt 0.640625 0.734375
vt 0.671875 0.71875
vt 0.671875 0.734375
vt 0.65625 0.734375
vt 0.65625 0.71875
vn 0 1 0
vn 1 0 0
vn -1 0 0
vn 0 -1 0
vn 0 0 1
vn 0 0 -1
vn 0 1 0
usemtl none
f 149/357/90 150/358/90 151/359/90 152/360/90
f 153/361/91 154/362/91 155/363/91 156/364/91
f 157/365/92 158/366/92 159/367/92 160/368/92
f 153/369/93 156/370/93 157/371/93 160/372/93
f 156/373/94 155/374/94 158/375/94 157/376/94
f 160/377/95 159/378/95 154/379/95 153/380/95
f 155/381/96 154/382/96 159/383/96 158/384/96