# Made in Blockbench 4.11.2
mtllib propellerrotor206.mtl

o blade2
v 0.0625 -0.37499999999999983 0.06250000000000017
v 0.0625 -0.12499999999999983 0.06250000000000006
v 0.0625 -0.12499999999999989 -0.062499999999999944
v 0.0625 -0.3749999999999999 -0.06249999999999983
v -0.0625 -0.12499999999999989 -0.062499999999999944
v -0.0625 -0.12499999999999983 0.06250000000000006
v -0.0625 -0.37499999999999983 0.06250000000000017
v -0.0625 -0.3749999999999999 -0.06249999999999983
v -0.34375 -0.2499999999999999 -0.03124999999999989
v -0.34375 -0.24999999999999983 0.03125000000000011
v -0.34375 -7.25 0.03125000000000322
v -0.34375 -7.25 -0.03124999999999678
v 0.09375 -7.25 0.03125000000000322
v 0.09375 -0.24999999999999983 0.03125000000000011
v 0.09375 -0.2499999999999999 -0.03124999999999989
v 0.09375 -7.25 -0.03124999999999678
vt 0.925861573322511 0.490234375
vt 0.9297635957792207 0.490234375
vt 0.9297635957792207 0.482421875
vt 0.925861573322511 0.482421875
vt 0.921959550865801 0.494140625
vt 0.921959550865801 0.486328125
vt 0.9180575284090908 0.486328125
vt 0.9180575284090908 0.494140625
vt 0.990244943858225 0.48828125
vt 0.998048988771645 0.48828125
vt 0.998048988771645 0.4843750000000001
vt 0.990244943858225 0.4843750000000001
vt 0.9804898877164503 0.4843750000000001
vt 0.9804898877164503 0.48828125
vt 0.9882939326298701 0.48828125
vt 0.9882939326298701 0.4843750000000001
vt 0.9297635957792207 0.4804687500000001
vt 0.9297635957792207 0.4765625
vt 0.925861573322511 0.4765625
vt 0.925861573322511 0.4804687500000001
vt 0.9083024722673161 0.49609375
vt 0.912204494724026 0.49609375
vt 0.912204494724026 0.4921875000000001
vt 0.9083024722673161 0.4921875000000001
vt 0.998048988771645 0.521484375
vt 0.7795357311958875 0.521484375
vt 0.7795357311958875 0.5234375
vt 0.998048988771645 0.5234375
vt 0.998048988771645 0.525390625
vt 0.998048988771645 0.52734375
vt 0.7795357311958875 0.52734375
vt 0.7795357311958875 0.525390625
vt 0.7795357311958875 0.529296875
vt 0.7795357311958875 0.54296875
vt 0.998048988771645 0.54296875
vt 0.998048988771645 0.529296875
vt 0.998048988771645 0.54296875
vt 0.7795357311958875 0.54296875
vt 0.7795357311958875 0.529296875
vt 0.998048988771645 0.529296875
vt 0.921959550865801 0.4843750000000001
vt 0.9239105620941559 0.4843750000000001
vt 0.9239105620941559 0.470703125
vt 0.921959550865801 0.470703125
vt 0.9200085396374459 0.4843750000000001
vt 0.9200085396374459 0.470703125
vt 0.9180575284090908 0.470703125
vt 0.9180575284090908 0.4843750000000001
vn 1 0 0
vn -1 0 0
vn 0 4.440892098500626e-16 1
vn 0 -4.440892098500626e-16 -1
vn 0 1 -4.440892098500626e-16
vn 0 -1 4.440892098500626e-16
vn -1 0 0
vn 1 0 0
vn 0 4.440892098500626e-16 1
vn 0 -4.440892098500626e-16 -1
vn 0 1 -8.881784197001252e-16
vn 0 -1 0
usemtl m_bf4d5fd9-f90b-d00f-4504-67b206bf63ea
f 3/1/1 2/2/1 1/3/1 4/4/1
f 7/5/2 6/6/2 5/7/2 8/8/2
f 1/9/3 2/10/3 6/11/3 7/12/3
f 5/13/4 3/14/4 4/15/4 8/16/4
f 6/17/5 2/18/5 3/19/5 5/20/5
f 4/21/6 1/22/6 7/23/6 8/24/6
f 11/25/7 10/26/7 9/27/7 12/28/7
f 15/29/8 14/30/8 13/31/8 16/32/8
f 14/33/9 10/34/9 11/35/9 13/36/9
f 12/37/10 9/38/10 15/39/10 16/40/10
f 9/41/11 10/42/11 14/43/11 15/44/11
f 13/45/12 11/46/12 12/47/12 16/48/12
o assembly
v -0.0625 -0.12499999999999982 0.09375000000000006
v -0.0625 0.12500000000000017 0.09374999999999994
v -0.0625 0.1250000000000001 -0.09375000000000006
v -0.0625 -0.1249999999999999 -0.09374999999999994
v 0.0625 0.1250000000000001 -0.09375000000000006
v 0.0625 0.12500000000000017 0.09374999999999994
v 0.0625 -0.12499999999999982 0.09375000000000006
v 0.0625 -0.1249999999999999 -0.09374999999999994
v -0.28125 -0.062499999999999854 0.015625
v -0.28125 0.06250000000000014 0.015625
v -0.28125 0.06250000000000011 -0.046875
v -0.28125 -0.06249999999999988 -0.046875
v 0.28125 0.06250000000000011 -0.046875
v 0.28125 0.06250000000000014 0.015625
v 0.28125 -0.062499999999999854 0.015625
v 0.28125 -0.06249999999999988 -0.046875
v 0.1875 -0.031249999999999882 -0.046875
v 0.1875 0.03125000000000012 -0.046875
v 0.1875 0.031249999999999722 -0.9375
v 0.1875 -0.03125000000000028 -0.9375
v 0.25 0.031249999999999722 -0.9375
v 0.25 0.03125000000000012 -0.046875
v 0.25 -0.031249999999999882 -0.046875
v 0.25 -0.03125000000000028 -0.9375
v 6.245004513516506e-17 -0.06629126073623867 -0.0625
v -0.06629126073623876 1.734723475976807e-16 -0.0625
v -0.06629126073623895 -3.122502256758253e-16 -0.9375
v -1.3183898417423734e-16 -0.06629126073623917 -0.9375
v -1.1102230246251565e-16 0.0662912607362385 -0.9375
v 8.326672684688674e-17 0.06629126073623898 -0.06250000000000006
v 0.06629126073623891 1.3183898417423734e-16 -0.06250000000000006
v 0.06629126073623871 -3.5388358909926865e-16 -0.9375
v -0.1875 0.031249999999999722 -0.9375
v -0.1875 0.03125000000000012 -0.046875
v -0.1875 -0.031249999999999882 -0.046875
v -0.1875 -0.03125000000000028 -0.9375
v -0.25 -0.031249999999999882 -0.046875
v -0.25 0.03125000000000012 -0.046875
v -0.25 0.031249999999999722 -0.9375
v -0.25 -0.03125000000000028 -0.9375
v 0.12499999802436643 -0.09375000263417814 -0.5625
v -0.12500000197563352 -0.09374999736582203 -0.5625
v -0.12500000197563352 -0.09374999736582208 -0.6875
v 0.12499999802436643 -0.0937500026341782 -0.6875
v -0.12499999802436645 0.09375000263417788 -0.6875
v -0.12499999802436645 0.09375000263417793 -0.5625
v 0.1250000019756335 0.09374999736582182 -0.5625
v 0.1250000019756335 0.09374999736582176 -0.6875
v 0.2812499986829109 -0.06250000592690073 -0.59375
v -0.281250001317089 -0.06249999407309949 -0.59375
v -0.281250001317089 -0.062499994073099516 -0.65625
v 0.2812499986829109 -0.06250000592690076 -0.65625
v -0.28124999868291095 0.06250000592690047 -0.65625
v -0.28124999868291095 0.0625000059269005 -0.59375
v 0.28125000131708894 0.06249999407309925 -0.59375
v 0.28125000131708894 0.062499994073099224 -0.65625
vt 0.9453716856060606 0.4921875000000001
vt 0.9453716856060606 0.5
vt 0.9395186519209957 0.5
vt 0.9395186519209957 0.4921875000000001
vt 0.9317146070075757 0.4921875000000001
vt 0.9375676406926408 0.4921875000000001
vt 0.9375676406926408 0.5
vt 0.9317146070075757 0.5
vt 0.9707348315746752 0.486328125
vt 0.9707348315746752 0.482421875
vt 0.9785388764880951 0.482421875
vt 0.9785388764880951 0.486328125
vt 0.9161065171807359 0.5078125
vt 0.9083024722673161 0.5078125
vt 0.9083024722673161 0.50390625
vt 0.9161065171807359 0.50390625
vt 0.9843919101731603 0.482421875
vt 0.990244943858225 0.482421875
vt 0.990244943858225 0.478515625
vt 0.9843919101731603 0.478515625
vt 0.998048988771645 0.478515625
vt 0.998048988771645 0.482421875
vt 0.9921959550865802 0.482421875
vt 0.9921959550865802 0.478515625
vt 0.9707348315746753 0.48046875
vt 0.9707348315746753 0.4765624999999999
vt 0.9687838203463204 0.4765624999999999
vt 0.9687838203463204 0.48046875
vt 0.9083024722673161 0.51953125
vt 0.910253483495671 0.51953125
vt 0.910253483495671 0.515625
vt 0.9083024722673161 0.515625
vt 0.9941469663149352 0.490234375
vt 0.9941469663149352 0.5078125
vt 0.9980489887716452 0.5078125
vt 0.9980489887716452 0.490234375
vt 0.9921959550865802 0.5078125
vt 0.9882939326298701 0.5078125
vt 0.9882939326298701 0.490234375
vt 0.9921959550865802 0.490234375
vt 0.9648817978896103 0.478515625
vt 0.9668328091179654 0.478515625
vt 0.9668328091179654 0.49609375
vt 0.9648817978896103 0.49609375
vt 0.9629307866612555 0.478515625
vt 0.9629307866612555 0.49609375
vt 0.9609797754329004 0.49609375
vt 0.9609797754329004 0.478515625
vt 0.9746368540313852 0.5058593750000001
vt 0.9746368540313852 0.5078125
vt 0.9473226968344157 0.5078125
vt 0.9473226968344157 0.5058593750000001
vt 0.912204494724026 0.517578125
vt 0.9395186519209957 0.517578125
vt 0.9395186519209957 0.51953125
vt 0.912204494724026 0.51953125
vt 0.912204494724026 0.4765625
vt 0.912204494724026 0.478515625
vt 0.910253483495671 0.478515625
vt 0.910253483495671 0.4765625
vt 0.998048988771645 0.4765625
vt 0.9960979775432902 0.4765625
vt 0.9960979775432902 0.4746093750000001
vt 0.998048988771645 0.4746093750000001
vt 0.912204494724026 0.513671875
vt 0.9395186519209957 0.513671875
vt 0.9395186519209957 0.515625
vt 0.912204494724026 0.515625
vt 0.9453716856060606 0.5058593750000001
vt 0.9453716856060606 0.5078125
vt 0.9180575284090908 0.5078125
vt 0.9180575284090908 0.5058593750000001
vt 0.9687838203463204 0.515625
vt 0.9687838203463204 0.51953125
vt 0.9414696631493507 0.51953125
vt 0.9414696631493507 0.515625
vt 0.9707348315746753 0.515625
vt 0.998048988771645 0.515625
vt 0.998048988771645 0.51953125
vt 0.9707348315746753 0.51953125
vt 0.9083024722673161 0.4804687500000001
vt 0.912204494724026 0.4804687500000001
vt 0.912204494724026 0.4843750000000001
vt 0.9083024722673161 0.4843750000000001
vt 0.912204494724026 0.486328125
vt 0.912204494724026 0.490234375
vt 0.9083024722673161 0.490234375
vt 0.9083024722673161 0.486328125
vt 0.9414696631493507 0.509765625
vt 0.9687838203463204 0.509765625
vt 0.9687838203463204 0.513671875
vt 0.9414696631493507 0.513671875
vt 0.998048988771645 0.509765625
vt 0.998048988771645 0.513671875
vt 0.9707348315746753 0.513671875
vt 0.9707348315746753 0.509765625
vt 0.912204494724026 0.509765625
vt 0.9395186519209957 0.509765625
vt 0.9395186519209957 0.51171875
vt 0.912204494724026 0.51171875
vt 0.9746368540313852 0.501953125
vt 0.9746368540313852 0.50390625
vt 0.9473226968344157 0.50390625
vt 0.9473226968344157 0.501953125
vt 0.9921959550865802 0.4746093750000001
vt 0.994146966314935 0.4746093750000001
vt 0.994146966314935 0.4765625
vt 0.9921959550865802 0.4765625
vt 0.9882939326298701 0.4765625
vt 0.9882939326298701 0.4746093750000001
vt 0.990244943858225 0.4746093750000001
vt 0.990244943858225 0.4765625
vt 0.9453716856060606 0.501953125
vt 0.9453716856060606 0.50390625
vt 0.9180575284090908 0.50390625
vt 0.9180575284090908 0.501953125
vt 0.9473226968344157 0.498046875
vt 0.9746368540313852 0.498046875
vt 0.9746368540313852 0.5
vt 0.9473226968344157 0.5
vt 0.9512247192911256 0.478515625
vt 0.9512247192911256 0.486328125
vt 0.9473226968344157 0.486328125
vt 0.9473226968344157 0.478515625
vt 0.9356166294642858 0.4765625
vt 0.9395186519209957 0.4765625
vt 0.9395186519209957 0.4843750000000001
vt 0.9356166294642858 0.4843750000000001
vt 0.9297635957792207 0.5
vt 0.9239105620941559 0.5
vt 0.9239105620941559 0.4921875000000001
vt 0.9297635957792207 0.4921875000000001
vt 0.9746368540313852 0.48828125
vt 0.9746368540313852 0.49609375
vt 0.9687838203463204 0.49609375
vt 0.9687838203463204 0.48828125
vt 0.9785388764880952 0.4746093750000001
vt 0.9824408989448051 0.4746093750000001
vt 0.9824408989448051 0.4804687500000001
vt 0.9785388764880952 0.4804687500000001
vt 0.9765878652597402 0.4746093750000001
vt 0.9765878652597402 0.4804687500000001
vt 0.9726858428030304 0.4804687500000001
vt 0.9726858428030304 0.4746093750000001
vt 0.9590287642045455 0.478515625
vt 0.9590287642045455 0.49609375
vt 0.9570777529761905 0.49609375
vt 0.9570777529761905 0.478515625
vt 0.9531757305194806 0.478515625
vt 0.9551267417478355 0.478515625
vt 0.9551267417478355 0.49609375
vt 0.9531757305194806 0.49609375
vt 0.9824408989448052 0.5078125
vt 0.9863429214015152 0.5078125
vt 0.9863429214015152 0.490234375
vt 0.9824408989448052 0.490234375
vt 0.9804898877164503 0.490234375
vt 0.9804898877164503 0.5078125
vt 0.9765878652597402 0.5078125
vt 0.9765878652597402 0.490234375
vt 0.9083024722673161 0.509765625
vt 0.910253483495671 0.509765625
vt 0.910253483495671 0.513671875
vt 0.9083024722673161 0.513671875
vt 0.9161065171807359 0.4785156249999999
vt 0.9161065171807359 0.474609375
vt 0.9141555059523809 0.474609375
vt 0.9141555059523809 0.4785156249999999
vn -1 0 0
vn 1 0 0
vn 0 4.440892098500626e-16 1
vn 0 -4.440892098500626e-16 -1
vn 0 1 -2.9605947323337506e-16
vn 0 -1 4.440892098500626e-16
vn -1 0 0
vn 1 0 0
vn 0 0 1
vn 0 0 -1
vn 0 1 -4.440892098500626e-16
vn 0 -1 4.440892098500626e-16
vn -1 0 0
vn 1 0 0
vn 0 0 1
vn 0 0 -1
vn 0 1 -4.440892098500626e-16
vn 0 -1 4.440892098500626e-16
vn -0.7071067811865477 -0.7071067811865474 5.392511833893617e-16
vn 0.7071067811865477 0.7071067811865475 -5.383174144058658e-16
vn 4.186913223156735e-16 4.186913223156733e-16 1
vn 0 0 -1
vn -0.7071067811865474 0.7071067811865478 -2.3551386880256644e-16
vn 0.7071067811865474 -0.7071067811865477 2.431917101559867e-16
vn 1 0 0
vn -1 0 0
vn 0 0 1
vn 0 0 -1
vn 0 1 -4.440892098500626e-16
vn 0 -1 4.440892098500626e-16
vn -2.1073424449902234e-8 -0.9999999999999998 4.440892098500626e-16
vn 2.1073424449902234e-8 0.9999999999999998 -4.440892098500625e-16
vn 0 0 1
vn 0 0 -1
vn -0.9999999999999999 2.1073424338879935e-8 -9.358480363488268e-24
vn 0.9999999999999999 -2.1073424338879935e-8 8.823259867232296e-24
vn -2.1073424437566423e-8 -0.9999999999999998 4.440892098500626e-16
vn 2.1073424437566423e-8 0.9999999999999998 -4.440892098500625e-16
vn 0 0 1
vn 0 0 -1
vn -0.9999999999999998 2.107342433887993e-8 -9.358480363488267e-24
vn 0.9999999999999999 -2.107342433887993e-8 6.617444900424222e-24
usemtl m_bf4d5fd9-f90b-d00f-4504-67b206bf63ea
f 17/49/13 18/50/13 19/51/13 20/52/13
f 21/53/14 22/54/14 23/55/14 24/56/14
f 22/57/15 18/58/15 17/59/15 23/60/15
f 20/61/16 19/62/16 21/63/16 24/64/16
f 19/65/17 18/66/17 22/67/17 21/68/17
f 23/69/18 17/70/18 20/71/18 24/72/18
f 25/73/19 26/74/19 27/75/19 28/76/19
f 29/77/20 30/78/20 31/79/20 32/80/20
f 30/81/21 26/82/21 25/83/21 31/84/21
f 28/85/22 27/86/22 29/87/22 32/88/22
f 27/89/23 26/90/23 30/91/23 29/92/23
f 31/93/24 25/94/24 28/95/24 32/96/24
f 33/97/25 34/98/25 35/99/25 36/100/25
f 37/101/26 38/102/26 39/103/26 40/104/26
f 38/105/27 34/106/27 33/107/27 39/108/27
f 36/109/28 35/110/28 37/111/28 40/112/28
f 35/113/29 34/114/29 38/115/29 37/116/29
f 39/117/30 33/118/30 36/119/30 40/120/30
f 41/121/31 42/122/31 43/123/31 44/124/31
f 45/125/32 46/126/32 47/127/32 48/128/32
f 46/129/33 42/130/33 41/131/33 47/132/33
f 44/133/34 43/134/34 45/135/34 48/136/34
f 43/137/35 42/138/35 46/139/35 45/140/35
f 47/141/36 41/142/36 44/143/36 48/144/36
f 49/145/37 50/146/37 51/147/37 52/148/37
f 53/149/38 54/150/38 55/151/38 56/152/38
f 51/153/39 50/154/39 54/155/39 53/156/39
f 55/157/40 49/158/40 52/159/40 56/160/40
f 54/161/41 50/162/41 49/163/41 55/164/41
f 52/165/42 51/166/42 53/167/42 56/168/42
f 57/169/43 58/170/43 59/171/43 60/172/43
f 61/173/44 62/174/44 63/175/44 64/176/44
f 62/177/45 58/178/45 57/179/45 63/180/45
f 60/181/46 59/182/46 61/183/46 64/184/46
f 59/185/47 58/186/47 62/187/47 61/188/47
f 63/189/48 57/190/48 60/191/48 64/192/48
f 65/193/49 66/194/49 67/195/49 68/196/49
f 69/197/50 70/198/50 71/199/50 72/200/50
f 70/201/51 66/202/51 65/203/51 71/204/51
f 68/205/52 67/206/52 69/207/52 72/208/52
f 67/209/53 66/210/53 70/211/53 69/212/53
f 71/213/54 65/214/54 68/215/54 72/216/54
o blade1
v 0.34375 0.25000000000000017 0.03124999999999989
v 0.34375 7.25 0.03124999999999678
v 0.34375 7.25 -0.03125000000000322
v 0.34375 0.2500000000000001 -0.03125000000000011
v -0.09375 7.25 -0.03125000000000322
v -0.09375 7.25 0.03124999999999678
v -0.09375 0.25000000000000017 0.03124999999999989
v -0.09375 0.2500000000000001 -0.03125000000000011
v 0.0625 0.12500000000000017 0.062499999999999944
v 0.0625 0.37500000000000017 0.06249999999999983
v 0.0625 0.3750000000000001 -0.06250000000000017
v 0.0625 0.1250000000000001 -0.06250000000000006
v -0.0625 0.3750000000000001 -0.06250000000000017
v -0.0625 0.37500000000000017 0.06249999999999983
v -0.0625 0.12500000000000017 0.062499999999999944
v -0.0625 0.1250000000000001 -0.06250000000000006
vt 0.998048988771645 0.5234375
vt 0.998048988771645 0.521484375
vt 0.7795357311958875 0.521484375
vt 0.7795357311958875 0.5234375
vt 0.998048988771645 0.525390625
vt 0.7795357311958875 0.525390625
vt 0.7795357311958875 0.52734375
vt 0.998048988771645 0.52734375
vt 0.7795357311958875 0.54296875
vt 0.998048988771645 0.54296875
vt 0.998048988771645 0.529296875
vt 0.7795357311958875 0.529296875
vt 0.998048988771645 0.529296875
vt 0.998048988771645 0.54296875
vt 0.7795357311958875 0.54296875
vt 0.7795357311958875 0.529296875
vt 0.9336656182359309 0.4843750000000001
vt 0.9336656182359309 0.470703125
vt 0.9317146070075757 0.470703125
vt 0.9317146070075757 0.4843750000000001
vt 0.9141555059523809 0.494140625
vt 0.9161065171807359 0.494140625
vt 0.9161065171807359 0.4804687500000001
vt 0.9141555059523809 0.4804687500000001
vt 0.9473226968344157 0.49609375
vt 0.9512247192911256 0.49609375
vt 0.9512247192911256 0.48828125
vt 0.9473226968344157 0.48828125
vt 0.9453716856060606 0.490234375
vt 0.9453716856060606 0.482421875
vt 0.9414696631493507 0.482421875
vt 0.9414696631493507 0.490234375
vt 0.9317146070075757 0.490234375
vt 0.9395186519209957 0.490234375
vt 0.9395186519209957 0.486328125
vt 0.9317146070075757 0.486328125
vt 0.9141555059523809 0.49609375
vt 0.9141555059523809 0.5
vt 0.921959550865801 0.5
vt 0.921959550865801 0.49609375
vt 0.9453716856060606 0.4804687500000001
vt 0.9453716856060606 0.4765625
vt 0.9414696631493507 0.4765625
vt 0.9414696631493507 0.4804687500000001
vt 0.9083024722673161 0.501953125
vt 0.912204494724026 0.501953125
vt 0.912204494724026 0.498046875
vt 0.9083024722673161 0.498046875
vn 1 0 0
vn -1 0 0
vn 0 4.440892098500626e-16 1
vn 0 -4.440892098500626e-16 -1
vn 0 1 0
vn 0 -1 8.881784197001252e-16
vn 1 0 0
vn -1 0 0
vn 0 4.440892098500626e-16 1
vn 0 -4.440892098500626e-16 -1
vn 0 1 -4.440892098500626e-16
vn 0 -1 4.440892098500626e-16
usemtl m_bf4d5fd9-f90b-d00f-4504-67b206bf63ea
f 75/217/55 74/218/55 73/219/55 76/220/55
f 79/221/56 78/222/56 77/223/56 80/224/56
f 73/225/57 74/226/57 78/227/57 79/228/57
f 77/229/58 75/230/58 76/231/58 80/232/58
f 78/233/59 74/234/59 75/235/59 77/236/59
f 76/237/60 73/238/60 79/239/60 80/240/60
f 83/241/61 82/242/61 81/243/61 84/244/61
f 87/245/62 86/246/62 85/247/62 88/248/62
f 81/249/63 82/250/63 86/251/63 87/252/63
f 85/253/64 83/254/64 84/255/64 88/256/64
f 86/257/65 82/258/65 83/259/65 85/260/65
f 84/261/66 81/262/66 87/263/66 88/264/66
o translucent_propblur
v -7.25 -7.25 -0.00390625
v -7.25 7.25 -0.00390625
v 7.25 7.25 -0.00390625
v 7.25 -7.25 -0.00390625
v 7.25 -7.25 0
v 7.25 7.25 0
v -7.25 7.25 0
v -7.25 -7.25 0
vt 1 0.548828125
vt 1 1
vt 0.54931640625 1
vt 0.54931640625 0.548828125
vt 1 0.548828125
vt 1 1
vt 0.54931640625 1
vt 0.54931640625 0.548828125
vn 0 0 -1
vn 0 0 1
usemtl m_bf4d5fd9-f90b-d00f-4504-67b206bf63ea
f 89/265/67 90/266/67 91/267/67 92/268/67
f 93/269/68 94/270/68 95/271/68 96/272/68