# Made in Blockbench 4.12.4
mtllib salesign.mtl

o cube
v 0.3125 0.5625 0.015625
v 0.3125 0.5625 -0.015625
v 0.3125 0 0.015625
v 0.3125 0 -0.015625
v -0.3125 0.5625 0.015625
v -0.3125 0.5625 -0.015625
v -0.3125 0 0.015625
v -0.3125 0 -0.015625
vt 0.359375 0.59375
vt 0.359375 0.875
vt 0.34375 0.875
vt 0.34375 0.59375
vt 0.421875 0.59375
vt 0.421875 0.875
vt 0.40625 0.875
vt 0.40625 0.59375
vt 0.34375 1
vt 0.34375 0.984375
vt 0.65625 0.984375
vt 0.65625 1
vt 0.34375 0.921875
vt 0.34375 0.9375
vt 0.65625 0.9375
vt 0.65625 0.921875
vt 0.3125 0.40625
vt 0.3125 0.6875
vt 0 0.6875
vt 0 0.40625
vt 0.3125 0.71875
vt 0.3125 1
vt 0 1
vt 0 0.71875
vn 1 0 0
vn -1 0 0
vn 0 1 0
vn 0 -1 0
vn 0 0 1
vn 0 0 -1
usemtl m_6b5083b4-6f96-4019-ce50-87783d3cdaa6
f 4/1/1 2/2/1 1/3/1 3/4/1
f 7/5/2 5/6/2 6/7/2 8/8/2
f 1/9/3 2/10/3 6/11/3 5/12/3
f 4/13/4 3/14/4 7/15/4 8/16/4
f 3/17/5 1/18/5 5/19/5 7/20/5
f 8/21/6 6/22/6 2/23/6 4/24/6