# Made in Blockbench 4.11.2
mtllib spotlight_bell206.mtl

o base
v 0.1875 0 0.25
v 0.1875 0 -0.25
v 0.1875 -0.0625 0.25
v 0.1875 -0.0625 -0.25
v -0.1875 0 0.25
v -0.1875 0 -0.25
v -0.1875 -0.0625 0.25
v -0.1875 -0.0625 -0.25
vt 0.84375 0.65625
vt 0.84375 0.6875
vt 0.59375 0.6875
vt 0.59375 0.65625
vt 0.84375 0.59375
vt 0.84375 0.625
vt 0.59375 0.625
vt 0.59375 0.59375
vt 0.1875 1
vt 0.1875 0.75
vt 0 0.75
vt 0 1
vt 0.40625 0.75
vt 0.40625 1
vt 0.21875 1
vt 0.21875 0.75
vt 0.84375 0.8125
vt 0.84375 0.84375
vt 0.65625 0.84375
vt 0.65625 0.8125
vt 0.84375 0.75
vt 0.84375 0.78125
vt 0.65625 0.78125
vt 0.65625 0.75
vn 1 0 0
vn -1 0 0
vn 0 1 0
vn 0 -1 0
vn 0 0 1
vn 0 0 -1
usemtl m_625f65f8-c4cd-7391-4fe1-650b15a79b4e
f 4/1/1 2/2/1 1/3/1 3/4/1
f 7/5/2 5/6/2 6/7/2 8/8/2
f 1/9/3 2/10/3 6/11/3 5/12/3
f 4/13/4 3/14/4 7/15/4 8/16/4
f 3/17/5 1/18/5 5/19/5 7/20/5
f 8/21/6 6/22/6 2/23/6 4/24/6
o light
v 0.125 -0.1875 0.25312499999999893
v 0.125 -0.4375 0.25312499999999893
v -0.125 -0.1875 0.25312499999999893
v -0.125 -0.4375 0.25312499999999893
vt 0.28125 0.375
vt 0.28125 0.5
vt 0.15625 0.5
vt 0.15625 0.375
vn 0 0 1
usemtl m_625f65f8-c4cd-7391-4fe1-650b15a79b4e
f 10/25/7 9/26/7 11/27/7 12/28/7
o projector
v 0.125 -0.1875 0.25
v 0.125 -0.1875 -0.125
v 0.125 -0.4375 0.25
v 0.125 -0.4375 -0.125
v -0.125 -0.1875 0.25
v -0.125 -0.1875 -0.125
v -0.125 -0.4375 0.25
v -0.125 -0.4375 -0.125
vt 0.625 0.875
vt 0.625 1
vt 0.4375 1
vt 0.4375 0.875
vt 0.625 0.71875
vt 0.625 0.84375
vt 0.4375 0.84375
vt 0.4375 0.71875
vt 0.5625 0.5
vt 0.5625 0.6875
vt 0.4375 0.6875
vt 0.4375 0.5
vt 0 0.3125
vt 0 0.5
vt 0.125 0.5
vt 0.125 0.3125
vt 0.4375 0.34375
vt 0.4375 0.46875
vt 0.3125 0.46875
vt 0.3125 0.34375
vt 0.59375 0.34375
vt 0.59375 0.46875
vt 0.46875 0.46875
vt 0.46875 0.34375
vn 1 0 0
vn -1 0 0
vn 0 1 0
vn 0 -1 0
vn 0 0 1
vn 0 0 -1
usemtl m_625f65f8-c4cd-7391-4fe1-650b15a79b4e
f 16/29/8 14/30/8 13/31/8 15/32/8
f 19/33/9 17/34/9 18/35/9 20/36/9
f 13/37/10 14/38/10 18/39/10 17/40/10
f 16/41/11 15/42/11 19/43/11 20/44/11
f 15/45/12 13/46/12 17/47/12 19/48/12
f 20/49/13 18/50/13 14/51/13 16/52/13
o main
v -0.125 -0.125 0.0625
v -0.125 -0.125 -0.0625
v -0.125 -0.375 0.0625
v -0.125 -0.375 -0.0625
v -0.1875 -0.125 0.0625
v -0.1875 -0.125 -0.0625
v -0.1875 -0.375 0.0625
v -0.1875 -0.375 -0.0625
v 0.1875 -0.0625 0.1875
v 0.1875 -0.0625 -0.1875
v 0.1875 -0.125 0.1875
v 0.1875 -0.125 -0.1875
v -0.1875 -0.0625 0.1875
v -0.1875 -0.0625 -0.1875
v -0.1875 -0.125 0.1875
v -0.1875 -0.125 -0.1875
v 0.1875 -0.125 0.0625
v 0.1875 -0.125 -0.0625
v 0.1875 -0.375 0.0625
v 0.1875 -0.375 -0.0625
v 0.125 -0.125 0.0625
v 0.125 -0.125 -0.0625
v 0.125 -0.375 0.0625
v 0.125 -0.375 -0.0625
vt 0.6875 0.4375
vt 0.6875 0.5625
vt 0.625 0.5625
vt 0.625 0.4375
vt 0.6875 0.28125
vt 0.6875 0.40625
vt 0.625 0.40625
vt 0.625 0.28125
vt 0.75 0.3125
vt 0.75 0.375
vt 0.71875 0.375
vt 0.71875 0.3125
vt 0.5 0.1875
vt 0.5 0.3125
vt 0.46875 0.3125
vt 0.46875 0.1875
vt 0.5625 0.1875
vt 0.5625 0.3125
vt 0.53125 0.3125
vt 0.53125 0.1875
vt 0.4375 0.28125
vt 0.4375 0.3125
vt 0.25 0.3125
vt 0.25 0.28125
vt 0.90625 0.53125
vt 0.90625 0.5625
vt 0.71875 0.5625
vt 0.71875 0.53125
vt 0.1875 0.53125
vt 0.1875 0.71875
vt 0 0.71875
vt 0 0.53125
vt 0.40625 0.53125
vt 0.40625 0.71875
vt 0.21875 0.71875
vt 0.21875 0.53125
vt 0.90625 0.46875
vt 0.90625 0.5
vt 0.71875 0.5
vt 0.71875 0.46875
vt 0.90625 0.40625
vt 0.90625 0.4375
vt 0.71875 0.4375
vt 0.71875 0.40625
vt 0.71875 0.875
vt 0.71875 1
vt 0.65625 1
vt 0.65625 0.875
vt 0.21875 0.21875
vt 0.21875 0.34375
vt 0.15625 0.34375
vt 0.15625 0.21875
vt 0.75 0.21875
vt 0.75 0.28125
vt 0.71875 0.28125
vt 0.71875 0.21875
vt 0.03125 0.15625
vt 0.03125 0.28125
vt 0 0.28125
vt 0 0.15625
vt 0.09375 0.15625
vt 0.09375 0.28125
vt 0.0625 0.28125
vt 0.0625 0.15625
vn 1 0 0
vn -1 0 0
vn 0 -1 0
vn 0 0 1
vn 0 0 -1
vn 1 0 0
vn -1 0 0
vn 0 1 0
vn 0 -1 0
vn 0 0 1
vn 0 0 -1
vn 1 0 0
vn -1 0 0
vn 0 -1 0
vn 0 0 1
vn 0 0 -1
usemtl m_625f65f8-c4cd-7391-4fe1-650b15a79b4e
f 24/53/14 22/54/14 21/55/14 23/56/14
f 27/57/15 25/58/15 26/59/15 28/60/15
f 24/61/16 23/62/16 27/63/16 28/64/16
f 23/65/17 21/66/17 25/67/17 27/68/17
f 28/69/18 26/70/18 22/71/18 24/72/18
f 32/73/19 30/74/19 29/75/19 31/76/19
f 35/77/20 33/78/20 34/79/20 36/80/20
f 29/81/21 30/82/21 34/83/21 33/84/21
f 32/85/22 31/86/22 35/87/22 36/88/22
f 31/89/23 29/90/23 33/91/23 35/92/23
f 36/93/24 34/94/24 30/95/24 32/96/24
f 40/97/25 38/98/25 37/99/25 39/100/25
f 43/101/26 41/102/26 42/103/26 44/104/26
f 40/105/27 39/106/27 43/107/27 44/108/27
f 39/109/28 37/110/28 41/111/28 43/112/28
f 44/113/29 42/114/29 38/115/29 40/116/29